<svg width="40" height="40" viewBox="0 0 40 40" fill="none" xmlns="http://www.w3.org/2000/svg">
<path d="M24.3335 28C22.6768 28 21.3335 26.6567 21.3335 25C21.3335 23.3433 22.6768 22 24.3335 22H37.3335V28H24.3335Z" fill="#0496FF"/>
<path d="M18.0002 3.3335L11.3335 11.3335H24.6668L18.0002 3.3335Z" fill="#0496FF"/>
<path d="M24.3332 19.3332H37.3332V17.3332C37.3332 15.1458 36.0012 13.4672 33.9998 12.6665C33.9998 10.4578 32.2085 8.6665 29.9998 8.6665H25.0478L27.2698 11.3332H29.9998C30.7358 11.3332 31.3332 11.9305 31.3332 12.6665C31.3332 13.4025 30.7358 13.9998 29.9998 13.9998H6.6665C5.9305 13.9998 5.33317 13.4025 5.33317 12.6665C5.33317 11.8672 5.94717 11.3332 6.6665 11.3332H8.72984L10.9518 8.6665H6.6665C4.45784 8.6665 2.6665 10.4578 2.6665 12.6665V31.9998C2.6665 34.2085 4.45784 35.9998 6.6665 35.9998H33.3332C35.5518 35.9998 37.3465 34.1945 37.3332 31.9765V30.6665H24.3332C21.2085 30.6665 18.6665 28.1245 18.6665 24.9998C18.6665 21.8752 21.2085 19.3332 24.3332 19.3332Z" fill="#0496FF"/>
</svg>
