<svg width="40" height="41" viewBox="0 0 40 41" fill="none" xmlns="http://www.w3.org/2000/svg">
<path fill-rule="evenodd" clip-rule="evenodd" d="M3.33301 13.7335C3.33301 9.60879 3.33301 7.54644 4.38341 6.10068C4.72265 5.63376 5.13327 5.22314 5.60019 4.8839C7.04595 3.8335 9.1083 3.8335 13.233 3.8335H26.7663C30.891 3.8335 32.9534 3.8335 34.3992 4.8839C34.8661 5.22314 35.2767 5.63376 35.6159 6.10068C36.6663 7.54644 36.6663 9.60879 36.6663 13.7335V27.2668C36.6663 31.3915 36.6663 33.4539 35.6159 34.8996C35.2767 35.3666 34.8661 35.7772 34.3992 36.1164C32.9534 37.1668 30.891 37.1668 26.7663 37.1668H13.233C9.1083 37.1668 7.04595 37.1668 5.60019 36.1164C5.13327 35.7772 4.72265 35.3666 4.38341 34.8996C3.33301 33.4539 3.33301 31.3915 3.33301 27.2668V13.7335ZM19.9997 11.6766C15.1269 11.6766 11.1761 15.6274 11.1761 20.5002C11.1761 25.373 15.1269 29.3237 19.9997 29.3237C24.8725 29.3237 28.8232 25.373 28.8232 20.5002C28.8232 15.6274 24.8725 11.6766 19.9997 11.6766ZM19.9997 26.0149C16.96 26.0149 14.485 23.5399 14.485 20.5002C14.485 17.4583 16.96 14.9855 19.9997 14.9855C23.0394 14.9855 25.5144 17.4583 25.5144 20.5002C25.5144 23.5399 23.0394 26.0149 19.9997 26.0149ZM30.6607 11.0149C30.6607 11.6642 30.1343 12.1906 29.485 12.1906C28.8356 12.1906 28.3092 11.6642 28.3092 11.0149C28.3092 10.3655 28.8356 9.83915 29.485 9.83915C30.1343 9.83915 30.6607 10.3655 30.6607 11.0149Z" fill="#F2F2F2"/>
</svg>
