<svg width="40" height="40" viewBox="0 0 40 40" fill="none" xmlns="http://www.w3.org/2000/svg">
<path d="M20.6845 37.7293C20.5052 37.8973 20.2638 38 19.9998 38C19.7352 38 19.4938 37.8973 19.3152 37.7293L9.50317 28.5107C6.52584 25.7133 4.6665 21.7407 4.6665 17.3333C4.6665 8.86533 11.5312 2 19.9998 2C28.4678 2 35.3332 8.86533 35.3332 17.3333C35.3332 21.7407 33.4738 25.7133 30.4965 28.5107L20.6845 37.7293ZM19.9998 11.3333C16.6858 11.3333 13.9998 14.0193 13.9998 17.3333C13.9998 20.6473 16.6858 23.3333 19.9998 23.3333C23.3138 23.3333 25.9998 20.6473 25.9998 17.3333C25.9998 14.0193 23.3138 11.3333 19.9998 11.3333Z" fill="#0496FF"/>
</svg>
